<?xml version="1.0" encoding="UTF-8"?>
<svg xmlns="http://www.w3.org/2000/svg" width="32" height="32" viewBox="0 0 32 32" fill="none">
  <path d="M13.3307 9.33366C12.9771 9.33366 12.638 9.47413 12.3879 9.72418L11.0546 11.0575C10.8045 11.3076 10.6641 11.6467 10.6641 12.0003V14.667C10.6641 15.0206 10.8045 15.3598 11.0546 15.6098L12.3879 16.9431C12.638 17.1932 12.9771 17.3337 13.3307 17.3337H18.1118L18.6641 17.8859V19.448L18.1118 20.0003H13.883L12.9402 19.0575C12.4195 18.5368 11.5753 18.5368 11.0546 19.0575C10.5339 19.5782 10.5339 20.4224 11.0546 20.9431L12.3879 22.2765C12.638 22.5265 12.9771 22.667 13.3307 22.667H14.6641V24.0003C14.6641 24.7367 15.261 25.3337 15.9974 25.3337C16.7338 25.3337 17.3307 24.7367 17.3307 24.0003V22.667H18.6641C19.0177 22.667 19.3568 22.5265 19.6069 22.2765L20.9402 20.9431C21.1903 20.6931 21.3307 20.3539 21.3307 20.0003V17.3337C21.3307 16.98 21.1903 16.6409 20.9402 16.3909L19.6069 15.0575C19.3568 14.8075 19.0177 14.667 18.6641 14.667H13.883L13.3307 14.1147V12.5526L13.883 12.0003H18.1118L19.0546 12.9431C19.5753 13.4638 20.4195 13.4638 20.9402 12.9431C21.4609 12.4224 21.4609 11.5782 20.9402 11.0575L19.6069 9.72418C19.3568 9.47413 19.0177 9.33366 18.6641 9.33366H17.3307V8.00033C17.3307 7.26395 16.7338 6.66699 15.9974 6.66699C15.261 6.66699 14.6641 7.26395 14.6641 8.00033V9.33366H13.3307Z" fill="black"></path>
  <path fill-rule="evenodd" clip-rule="evenodd" d="M15.9974 2.66699C8.6336 2.66699 2.66406 8.63653 2.66406 16.0003C2.66406 23.3641 8.6336 29.3337 15.9974 29.3337C23.3612 29.3337 29.3307 23.3641 29.3307 16.0003C29.3307 8.63653 23.3612 2.66699 15.9974 2.66699ZM5.33073 16.0003C5.33073 10.1093 10.1064 5.33366 15.9974 5.33366C21.8884 5.33366 26.6641 10.1093 26.6641 16.0003C26.6641 21.8914 21.8884 26.667 15.9974 26.667C10.1064 26.667 5.33073 21.8914 5.33073 16.0003Z" fill="black"></path>
</svg>
