<?xml version="1.0" encoding="UTF-8"?>
<svg xmlns="http://www.w3.org/2000/svg" width="32" height="32" viewBox="0 0 32 32" fill="none">
  <path d="M18.6641 11.9997C18.6641 11.2633 19.261 10.6663 19.9974 10.6663H23.9974C24.7338 10.6663 25.3307 11.2633 25.3307 11.9997C25.3307 12.7361 24.7338 13.333 23.9974 13.333H19.9974C19.261 13.333 18.6641 12.7361 18.6641 11.9997Z" fill="black"></path>
  <path d="M19.9974 15.9997C19.261 15.9997 18.6641 16.5966 18.6641 17.333C18.6641 18.0694 19.261 18.6663 19.9974 18.6663H21.3307C22.0671 18.6663 22.6641 18.0694 22.6641 17.333C22.6641 16.5966 22.0671 15.9997 21.3307 15.9997H19.9974Z" fill="black"></path>
  <path fill-rule="evenodd" clip-rule="evenodd" d="M13.3307 5.33301C13.6844 5.33301 14.0235 5.47348 14.2735 5.72353L15.9974 7.44739L17.7213 5.72353C17.9713 5.47348 18.3104 5.33301 18.6641 5.33301H27.9974C28.7338 5.33301 29.3307 5.92996 29.3307 6.66634V25.333C29.3307 26.0694 28.7338 26.6663 27.9974 26.6663H17.883L16.9402 27.6092L16.9193 27.6296C16.8934 27.6544 16.8664 27.6782 16.8384 27.701C16.6577 27.848 16.4445 27.9427 16.2212 27.9808C16.1867 27.9866 16.1521 27.9911 16.1174 27.9943C15.9069 28.0133 15.6908 27.9825 15.4872 27.8982L15.4602 27.8867C15.4368 27.8763 15.4136 27.8653 15.3907 27.8537C15.2603 27.7871 15.1438 27.7006 15.0442 27.5987L14.1118 26.6663H3.9974C3.26102 26.6663 2.66406 26.0693 2.66406 25.3329V6.66634C2.66406 5.92996 3.26102 5.33301 3.9974 5.33301H13.3307ZM14.6641 23.9996V9.88529L12.7784 7.99967H5.33073V23.9996H14.6641ZM17.3307 23.9997H26.6641V7.99967H19.2163L17.3307 9.88529V23.9997Z" fill="black"></path>
  <path d="M18.6641 11.9997C18.6641 11.2633 19.261 10.6663 19.9974 10.6663H23.9974C24.7338 10.6663 25.3307 11.2633 25.3307 11.9997C25.3307 12.7361 24.7338 13.333 23.9974 13.333H19.9974C19.261 13.333 18.6641 12.7361 18.6641 11.9997Z" stroke="#141414"></path>
  <path d="M19.9974 15.9997C19.261 15.9997 18.6641 16.5966 18.6641 17.333C18.6641 18.0694 19.261 18.6663 19.9974 18.6663H21.3307C22.0671 18.6663 22.6641 18.0694 22.6641 17.333C22.6641 16.5966 22.0671 15.9997 21.3307 15.9997H19.9974Z" stroke="#141414"></path>
  <path fill-rule="evenodd" clip-rule="evenodd" d="M13.3307 5.33301C13.6844 5.33301 14.0235 5.47348 14.2735 5.72353L15.9974 7.44739L17.7213 5.72353C17.9713 5.47348 18.3104 5.33301 18.6641 5.33301H27.9974C28.7338 5.33301 29.3307 5.92996 29.3307 6.66634V25.333C29.3307 26.0694 28.7338 26.6663 27.9974 26.6663H17.883L16.9402 27.6092L16.9193 27.6296C16.8934 27.6544 16.8664 27.6782 16.8384 27.701C16.6577 27.848 16.4445 27.9427 16.2212 27.9808C16.1867 27.9866 16.1521 27.9911 16.1174 27.9943C15.9069 28.0133 15.6908 27.9825 15.4872 27.8982L15.4602 27.8867C15.4368 27.8763 15.4136 27.8653 15.3907 27.8537C15.2603 27.7871 15.1438 27.7006 15.0442 27.5987L14.1118 26.6663H3.9974C3.26102 26.6663 2.66406 26.0693 2.66406 25.3329V6.66634C2.66406 5.92996 3.26102 5.33301 3.9974 5.33301H13.3307ZM14.6641 23.9996V9.88529L12.7784 7.99967H5.33073V23.9996H14.6641ZM17.3307 23.9997H26.6641V7.99967H19.2163L17.3307 9.88529V23.9997Z" stroke="#141414"></path>
</svg>
