<?xml version="1.0" encoding="UTF-8"?>
<svg xmlns="http://www.w3.org/2000/svg" width="32" height="32" viewBox="0 0 32 32" fill="none">
  <path fill-rule="evenodd" clip-rule="evenodd" d="M15.9974 5.33366C10.1064 5.33366 5.33073 10.1093 5.33073 16.0003C5.33073 21.8914 10.1064 26.667 15.9974 26.667C21.8884 26.667 26.6641 21.8914 26.6641 16.0003C26.6641 10.1093 21.8884 5.33366 15.9974 5.33366ZM2.66406 16.0003C2.66406 8.63653 8.6336 2.66699 15.9974 2.66699C23.3612 2.66699 29.3307 8.63653 29.3307 16.0003C29.3307 23.3641 23.3612 29.3337 15.9974 29.3337C8.6336 29.3337 2.66406 23.3641 2.66406 16.0003ZM14.6641 22.667C14.6641 21.9306 15.261 21.3337 15.9974 21.3337C16.7338 21.3337 17.3307 21.9306 17.3307 22.667C17.3307 23.4034 16.7338 24.0003 15.9974 24.0003C15.261 24.0003 14.6641 23.4034 14.6641 22.667ZM14.6641 8.00033C14.3104 8.00033 13.9713 8.1408 13.7213 8.39085L11.0546 11.0575C10.8045 11.3076 10.6641 11.6467 10.6641 12.0003V13.3337C10.6641 14.07 11.261 14.667 11.9974 14.667C12.7338 14.667 13.3307 14.07 13.3307 13.3337V12.5526L15.2163 10.667H16.7784L18.6641 12.5526V14.1147L15.0546 17.7242C14.5339 18.2449 14.5339 19.0891 15.0546 19.6098C15.5753 20.1305 16.4195 20.1305 16.9402 19.6098L20.9402 15.6098C21.1903 15.3598 21.3307 15.0206 21.3307 14.667V12.0003C21.3307 11.6467 21.1903 11.3076 20.9402 11.0575L18.2735 8.39085C18.0235 8.1408 17.6844 8.00033 17.3307 8.00033H14.6641Z" fill="black"></path>
</svg>
