<?xml version="1.0" encoding="UTF-8"?>
<svg xmlns="http://www.w3.org/2000/svg" width="32" height="32" viewBox="0 0 32 32" fill="none">
  <path d="M14.6641 11.9997C14.6641 11.2633 15.261 10.6663 15.9974 10.6663C16.7338 10.6663 17.3307 11.2633 17.3307 11.9997V14.6663C17.3307 15.4027 16.7338 15.9997 15.9974 15.9997C15.261 15.9997 14.6641 15.4027 14.6641 14.6663V11.9997Z" fill="black"></path>
  <path fill-rule="evenodd" clip-rule="evenodd" d="M29.3307 7.99967V18.6663C29.3307 20.1391 28.1368 21.333 26.6641 21.333H5.33073C3.85797 21.333 2.66406 20.1391 2.66406 18.6663V7.99967C2.66406 6.52692 3.85797 5.33301 5.33073 5.33301H26.6641C28.1368 5.33301 29.3307 6.52691 29.3307 7.99967ZM11.2163 18.6663H20.7784L26.1118 13.333L20.7784 7.99967L11.2163 7.99967L5.88301 13.333L11.2163 18.6663ZM5.33073 16.552L7.44511 18.6663H5.33073V16.552ZM26.6641 7.99967V10.1141L24.5497 7.99967H26.6641ZM7.44511 7.99967H5.33073V10.1141L7.44511 7.99967ZM26.6641 18.6663H24.5497L26.6641 16.552V18.6663Z" fill="black"></path>
  <path d="M3.9974 23.9997C3.26102 23.9997 2.66406 24.5966 2.66406 25.333C2.66406 26.0694 3.26102 26.6663 3.9974 26.6663H27.9974C28.7338 26.6663 29.3307 26.0694 29.3307 25.333C29.3307 24.5966 28.7338 23.9997 27.9974 23.9997H3.9974Z" fill="black"></path>
</svg>
