<?xml version="1.0" encoding="UTF-8"?>
<svg xmlns="http://www.w3.org/2000/svg" xmlns:xlink="http://www.w3.org/1999/xlink" version="1.1" id="Layer_1" x="0px" y="0px" viewBox="0 0 110 55" style="enable-background:new 0 0 110 55;" xml:space="preserve">
<style type="text/css">
	.st0{fill:#231F20;}
	.st1{fill:#FFD300;}
	.st2{fill:#FFFFFF;}
	.st3{fill-rule:evenodd;clip-rule:evenodd;fill:#D91E48;}
	.st4{fill-rule:evenodd;clip-rule:evenodd;fill:#231F20;}
</style>
<g>
	<path class="st0" d="M36.6,52.8c-1.9,0-3.6-0.8-4.8-2c-1.2-1.2-2-2.9-2-4.8V9.2c0-1.9,0.8-3.6,2-4.8c1.2-1.2,2.9-2,4.8-2h36.9   c1.9,0,3.6,0.8,4.8,2c1.2,1.2,2,2.9,2,4.8V46c0,1.9-0.8,3.6-2,4.8c-1.2,1.2-2.9,2-4.8,2H36.6L36.6,52.8z"></path>
	<path class="st1" d="M31.1,38.8h47.8V9.2c0-1.5-0.6-2.9-1.6-3.9c-1-1-2.4-1.6-3.9-1.6H36.6c-1.5,0-2.9,0.6-3.9,1.6   c-1,1-1.6,2.4-1.6,3.9V38.8L31.1,38.8z"></path>
	<path class="st2" d="M78.9,40.1H31.1v6c0,1.5,0.6,2.9,1.6,3.9c1,1,2.4,1.6,3.9,1.6h36.9c1.5,0,2.9-0.6,3.9-1.6   C79.7,47.5,78.9,43,78.9,40.1L78.9,40.1z"></path>
	<polygon class="st3" points="50,42.5 50,40.9 51.8,40.9 51.8,42.5 50,42.5  "></polygon>
	<path class="st3" d="M44.6,12.4c0.4-0.3,0.7-0.5,1.2-0.7c0.6-0.2,0.9-0.3,1.5-0.4c-0.1-0.1-0.2-0.2-0.3-0.3   c-0.1-0.1-0.2-0.2-0.2-0.3c0.5-0.1,0.4,0,1.2-0.2c1-0.2,1.4-0.7,2.7-0.7c1.5,0,1.6,0.5,2.7,0.6c0.8,0.1,1.3,0.1,2.1,0.1l-0.2,0.5   c0.5,0.1,0.7,0.2,1.2,0.2c0.9,0,1.4-0.6,2.3-0.5c0.7,0.1,1.1,0.3,1.7,0.7c-0.4,0.1-0.7,0.1-1,0.3c-0.7,0.4-1.4,1.5-2.6,1.7   c-1.4,0.2-2.2,0.2-3.5-0.1l0.2,0.4c-0.4,0-0.6-0.1-0.9-0.1c-1,0-1.6,0.4-2.6,0.4c-1.4,0-2.1-0.4-3.4-0.9c-0.4-0.1-0.7,0-1.1-0.2   C45,12.8,44.9,12.7,44.6,12.4L44.6,12.4z"></path>
	<path class="st4" d="M53.9,45.7c0-0.8,0.2-1.5,1-1.5c0.7,0,1,0.7,1,1.5h0c0,0.8-0.3,1.5-1,1.5C54.1,47.3,53.9,46.6,53.9,45.7   L53.9,45.7z M41.7,46.1l-0.9-2.6L40,46.1H41.7L41.7,46.1z M39,46.8l1.8-5.7l2,5.7H39L39,46.8z M38.3,48.6l0.6-1.6h3.9l0.6,1.6h-0.9   l-0.3-0.9h-2.7l-0.3,0.9H38.3L38.3,48.6z M40.9,41h0.8l2.8,7.7h-0.9L40.9,41L40.9,41z M37.2,48.6h0.9l2.5-7.7h-0.8L37.2,48.6   L37.2,48.6z M48.5,48.8v-1.9c-0.3,0.7-0.9,1.2-1.7,1.2c-1.4,0-1.9-1-1.9-2.3c0-1.3,0.6-2.3,1.9-2.3c0.9,0,1.4,0.5,1.7,1.2v-1.7   h-0.7v0.4c-0.4-0.3-0.8-0.5-1.4-0.5c-1.6,0-2.3,1.3-2.3,2.9c0,1.6,0.7,2.9,2.3,2.9c0.6,0,1.1-0.2,1.4-0.5v0.7   c0,0.3-0.3,0.6-0.9,0.6c-0.6,0-0.9-0.3-0.9-0.6l-0.7,0c0,0.6,0.6,1.2,1.6,1.2C48,50,48.5,49.4,48.5,48.8L48.5,48.8z M48.8,48.8   v-5.9h0.7l0,5.9c0,1.1-0.8,1.9-2.5,1.9c-1.8,0-2.5-0.9-2.5-1.9l0.7,0c0,0.7,0.7,1.4,1.9,1.4C48.2,50.2,48.8,49.5,48.8,48.8   L48.8,48.8z M47.8,45.7c0,0.8-0.2,1.5-1,1.5c-0.7,0-1-0.7-1-1.5h0c0-0.8,0.3-1.5,1-1.5C47.6,44.2,47.8,44.9,47.8,45.7L47.8,45.7z    M45.1,45.7c0,1.2,0.5,2.1,1.7,2.1c1.1,0,1.7-0.9,1.7-2.1c0-1.2-0.5-2.1-1.7-2.1C45.7,43.6,45.1,44.6,45.1,45.7L45.1,45.7z    M51,48.6v-5.7h0.8v5.7H51L51,48.6z M50,48.6v-5.7h0.8v5.7H50L50,48.6z M53,50.4l0-7.5h-0.7l0,7.5L53,50.4L53,50.4z M53.2,50.4   v-3.6c0.3,0.7,0.9,1.2,1.7,1.2c1.4,0,1.9-1,1.9-2.3c0-1.3-0.6-2.3-1.9-2.3c-0.9,0-1.4,0.5-1.7,1.2v-1.7h0.7v0.4   c0.4-0.3,0.8-0.5,1.4-0.5c1.6,0,2.3,1.3,2.3,2.9c0,1.6-0.7,2.9-2.3,2.9c-0.6,0-1.1-0.2-1.4-0.5l0,2.3L53.2,50.4L53.2,50.4z    M56.7,45.7c0-1.2-0.6-2.1-1.7-2.1c-1.2,0-1.7,0.9-1.7,2.1c0,1.2,0.6,2.1,1.7,2.1C56.2,47.8,56.7,46.9,56.7,45.7L56.7,45.7z"></path>
	<path class="st4" d="M45.8,7.6c0.1,0,0.2,0,0.3,0c0.2,0,0.2,0.1,0.2,0.2l0.5,2.1c0,0,0,0.1,0,0.1c-0.1,0.1-0.1,0.1-0.2,0.1   l-0.3,0.1c0,0,0,0-0.1,0.1c0,0.1-0.1,0.1-0.1,0.2l-0.1,0.3c0.1,0.1-0.1,0.2-0.2,0.2c-0.1,0-0.1-0.1-0.1-0.1l-0.1-0.2   c0,0.1-0.1-0.1-0.1-0.1c-0.1,0-0.1,0.1-0.1,0.1l-0.1,0.4c0.1,0.1-0.1,0.2-0.2,0.2c-0.1,0-0.1-0.1-0.1-0.1l-0.1-0.2   c0,0,0-0.1-0.1-0.1c0,0,0,0-0.1,0l-1.2,0.6c0,0-0.1,0.1-0.1,0.1c0,0.1,0,0.1,0.1,0.1l0.8,1.6c0,0.1,0.1,0.1,0.2,0.2   c0.1,0,0.1,0.1,0.2,0.1l1.3,0.2l0.2-0.2c0-0.1,0.1-0.1,0.1-0.1c0.1,0,0.1,0.1,0.1,0.1l-0.1,0.9c0,0.1,0,0.1-0.1,0.1   c-0.1,0.1-0.1,0.1-0.2,0.1l-1.8-0.3c-0.1,0-0.1,0-0.2-0.1c-0.1,0-0.2-0.1-0.2-0.2l-0.6-0.6c0,0-0.1,0-0.1,0c0,0.1,0,0.1,0,0.2   c0.2,0.3,0.3,0.5,0.5,0.9c0.3,0.5,0.2,0.9,0.7,1.2c0.4,0.3,0.6,0.4,1.1,0.3c-0.3,0.4-0.6,0.5-1.1,0.5c-0.7,0.1-1.2-0.3-1.6-0.9   c0-0.1-0.1-0.1-0.2,0c-0.1,0,0,0.1,0,0.2c0.2,0.3,0.3,0.4,0.4,0.7c0.1,0.4,0.1,0.6-0.1,1c-0.3-0.1-0.5-0.2-0.8-0.3   c-0.3-0.1-0.5-0.1-0.8-0.2c-0.3,0.2-0.4,0.3-0.6,0.5c-0.4,0.4-0.5,0.8-0.6,1.4c-0.2-0.1-0.4-0.2-0.5-0.4c-0.3-0.4-0.1-1,0.2-1.8   c0,0-0.1-0.2,0-0.2c0.1,0-0.2,0-0.2,0.1c-0.3,0.8-0.3,1-0.5,1.4c-0.4,0.6-0.9,0.9-1.6,1.1c0.2-0.3,0.3-0.5,0.3-0.9   c0.1-0.4-0.1-0.7,0-1.2c0.1-0.5,0.2-0.9,0.6-1.3c0.1,0,0.1-0.1,0-0.2c-0.1,0-0.2,0-0.2,0.1c-0.3,0.3-0.4,0.5-0.8,0.7   c-0.4,0.1-0.6,0.1-1,0c0.4-0.2,0.5-0.5,0.7-0.9c0.2-0.5-0.2-0.8-0.1-1.4c0.1-0.5,0.2-0.7,0.5-1.1c-0.3,0.1-0.6,0.1-0.9-0.1   c-0.3-0.1-0.5-0.3-0.6-0.6c0.4-0.2,0.7-0.3,1-0.6c0.4-0.4,0.5-0.7,0.8-1.1c0.3-0.3,0.7-0.5,1.2-0.5l-0.5-2.7l2.5,1.8   c0,0,0.1,0.1,0.1,0.1C41.2,9.3,45.8,7.6,45.8,7.6L45.8,7.6z M70.5,23.9c0.5,0.2,1.2,0.5,1.2,0.5c0.1,0,0.2,0,0.4,0   C72,24.5,72,24.6,72,24.7c-0.1,0.1-0.1,0.2-0.1,0.3c0.2,0.1,0.3,0.2,0.5,0.2c0.2,0,0.3,0,0.5-0.1c0-0.3-0.1,0.4-0.2,0.6   c-0.1,0.2-0.2,0.3-0.4,0.3c-0.1,0-0.1,0-0.1,0.1c0,0.1,0.1,0.1,0.1,0.1c0.2,0,0.4,0,0.6,0.1c0.2,0.1,0.4,0.2,0.5,0.4   c-0.2,0-0.3,0-0.4,0c-0.1,0-0.2,0-0.2,0.1c-0.1,0-0.2,0-0.2,0.1c0,0.1,0,0.2,0.1,0.2c0.1,0.1,0.2,0.1,0.3,0.2   c0.1,0.1,0.2,0.2,0.3,0.3c-0.1,0.2-0.2,0.3-0.3,0.4c-0.2,0.2-0.3,0.2-0.4,0.3l0.6,1.6c0.2,0,0.4,0,0.6,0.1c0.2,0.1,0.3,0.2,0.5,0.4   c-0.1,0.2-0.2,0.3-0.4,0.4c-0.2,0.1-0.3,0.2-0.5,0.2l0,1.3c0,0.1,0,0.2-0.1,0.3c-0.1,0.1-0.2,0.1-0.3,0.1l-2.1,0.3   c-0.1,0-0.2-0.1-0.3-0.2c0-0.2,0-0.3,0.1-0.4l1.5-1.5c0.1-0.1,0.1-0.1,0.1-0.2c0-0.1-0.1-0.2-0.1-0.3c-0.4-0.7-0.9-1-1.3-1.7   c-0.5-0.8-0.7-1.3-1.3-2.1c-0.1-0.1-0.1-0.1-0.2-0.2c-0.1-0.1-0.2-0.1-0.4-0.1c-0.9-0.2-1.3-0.1-2.3-0.4l-3.1-0.8l0.2,0.9   c0,0.1,0,0.1,0.1,0.2c0.1,0,0.1,0,0.2,0c0.2,0,0.2,0,0.4,0c0.3,0.1,0.4,0.2,0.7,0.2c0.2,0,0.3,0,0.5,0c0,0.3-0.1,0.5-0.3,0.7   c-0.1,0.2-0.2,0.3-0.4,0.3c-0.1,0-0.1,0-0.1,0.1c0,0.1,0,0.1,0.1,0.1c0.1,0,0.2,0,0.3,0.1c0.1,0.1,0.2,0.1,0.3,0.2l-0.5,0.2   c-0.1,0.1-0.2,0-0.1,0.1c0,0.1,0,0.1,0.1,0.1c0.1,0.2,0.2,0.3,0.4,0.3c-0.1,0.1-0.1,0.1-0.2,0.2c-0.2,0.2-0.4,0.2-0.6,0.3   c0,0,0,0.1-0.1,0.1l0.1,1.3c0,0.1,0,0.2-0.1,0.3c-0.1,0.1-0.1,0.1-0.2,0.2l-2.2,0.4c-0.1,0-0.2,0-0.2-0.1c-0.1-0.1,0-0.2,0.2-0.4   l1.3-1.8c0.1-0.1,0.1-0.2,0.1-0.3c0-0.1,0-0.1,0-0.2c-0.3-0.5-0.5-0.8-1-1.3c-0.4-0.4-0.7-0.6-1.2-1c-0.1,0-0.1-0.1-0.2-0.2   c-0.1-0.1,0-0.3,0-0.4c-0.3-0.4-0.4-0.6-0.5-1c0-0.1,0-0.1,0-0.1c-0.1,0-0.1,0.1-0.2,0.2c-0.4,0.3-0.8,0.7-0.8,1   c0,0.2,0,0.3,0.3,0.5c0.2,0.1,0.5,0.1,0.8,0c-0.1,0.2-0.1,0.2-0.2,0.4c-0.1,0.2-0.2,0.2-0.4,0.3c0.2,0,0.2,0,0.4,0   c0.1,0,0.2,0,0.3,0c-0.2,0.2-0.5,0.4-0.5,0.5c0,0.2,0.3,0.2,0.6,0.5c-0.4,0-0.5,0.2-0.8,0.4c-0.3,0.3-0.4,0.2-0.5,0.4   c0,0.1,0,0.1,0,0.2l0,1.7c0,0.1-0.1,0.2-0.1,0.2c-0.1,0.1-0.2,0.1-0.3,0.1l-2.5,0c-0.1,0-0.2-0.1-0.2-0.1c0-0.1,0-0.2,0.1-0.2   l1.7-1.9c0.1-0.1,0-0.1,0-0.2c0-0.1,0-0.1-0.1-0.2c-0.4-0.5-0.7-0.8-1.1-1.4c-0.4-0.6-0.6-1-0.9-1.6c-0.2,0-0.3,0-0.4,0.1   c-0.2,0.1-0.3,0.1-0.4,0.2c-0.1,0-0.1,0.1-0.1,0.1c0,0.1,0,0.1,0,0.2c0.1,0.1,0.2,0.2,0.3,0.2c0.2,0.1,0.3,0.1,0.5,0.1   c0,0.3-0.1,0.4-0.3,0.7c-0.2,0.3-0.5,0.4-0.9,0.4c0.1,0.1,0.1,0.1,0.2,0.1c0.1,0,0.2,0.1,0.3,0.1c-0.2,0.3-0.4,0.3-0.7,0.5   c-0.4,0.1-0.6,0.2-1,0.1c0,0-0.1,0-0.1,0c0,0.1,0.1,0.2,0.1,0.1c0.1,0.1,0.1,0.1,0.2,0.1c0.1,0,0.2,0,0.4,0   c-0.1,0.3-0.3,0.4-0.5,0.5c-0.3,0.1-0.5,0.1-0.8,0c-0.1-0.1-0.2,0-0.2,0c0,0.1,0,0.1,0.1,0.1c0.2,0.1,0.3,0.1,0.4,0.3   c0.1,0.2,0.2,0.7,0.2,0.5c-0.1,0-0.1,0-0.2,0c-0.2,0-0.2,0.1-0.4,0.1c-0.3,0.1-0.5,0.1-0.8,0.1c0,0.1,0,0.2,0,0.3   c0,0.1,0,0.2-0.1,0.3l-0.7,1.2c-0.1,0.1-0.1,0.1-0.2,0.1c-0.1,0-0.2,0-0.3-0.1l-1.5-1.1c0-0.1-0.1-0.1-0.1-0.2c0-0.1,0-0.2,0.1-0.2   l1.8-1.2c0,0,0.2-0.2,0.3-0.8l0.9-2.8c0,0.1,0-0.2,0-0.2c-0.1-0.1-0.1-0.1-0.2,0c-0.6,0.1-0.9,0.1-1.5,0.1c-0.7,0-1,0-1.7-0.1   l-0.3,1.1c0.2,0.1,0.3,0.1,0.4,0.2c0.1,0.1,0.2,0.1,0.3,0.2c-0.1,0.3-0.2,0.4-0.3,0.6c-0.2,0.2-0.3,0.3-0.6,0.4   c-0.1,0-0.2,0.1-0.2,0.1c0,0.1,0,0.1,0.1,0.1c0.1,0.1,0.1,0.2,0.2,0.3c0.2,0.2,0.3,0.2,0.5,0.3c-0.2,0.1-0.3,0.2-0.5,0.2   c-0.2,0-0.3,0-0.4,0c-0.1,0-0.1,0-0.1,0.1c0,0.1,0,0.1,0.1,0.2c0.2,0,0.2,0.1,0.4,0.2c0.2,0.2,0.4,0.3,0.4,0.6   c-0.4,0.1-0.4,0-1,0.3c-0.2,0.1-0.3-0.1-0.4,0c-0.1,0.1-0.1,0.1-0.1,0.2l-0.6,1.3c0,0.1-0.1,0.1-0.2,0.1c-0.1,0-0.2,0-0.3-0.1   l-1.3-1c-0.1-0.1,0-0.1,0-0.2c0-0.1,0.1-0.2,0.2-0.2l1-0.6c0.2-0.2,0.3-0.3,0.3-0.5c0.1-0.7-0.4-1.2-0.6-2.1   c-0.1-0.6-0.2-0.9-0.2-1.5c-0.4-0.1-0.6-0.1-0.9-0.3c-0.3-0.1-0.5-0.2-0.9-0.4c0,0.1-0.1-0.2-0.2-0.1c-0.1,0.1,0,0.3,0,0.2l0,0.7   c0,0.1,0.1,0.1,0.1,0.1c0.1,0,0.1,0,0.2,0c0.2-0.1,0.3,0,0.5,0c0.3,0.1,0.5,0.2,0.7,0.5c-0.2,0.1-0.3,0.1-0.5,0.3   c-0.2,0.2-0.3,0.3-0.4,0.6c-0.1,0.1-0.1,0.1-0.1,0.2c0,0.1,0.1,0.1,0.2,0.1c0.1,0,0.2,0.1,0.3,0.1c0.2,0.1,0.3,0.2,0.5,0.3   C45,29,44.9,29,44.8,29.2c-0.1,0.2-0.3,0.3-0.4,0.5c0,0.1,0,0.1,0.1,0.2c0.1,0.2,0.2,0.3,0.4,0.3c-0.2,0.2-0.1,0.3-0.3,0.5   c-0.1,0.1-0.3,0.2-0.4,0.2c-0.1,0-0.1,0.1-0.1,0.2c0,0.1,0,0.2,0.1,0.2l0.4,0.4c-0.2,0.1-0.3,0.1-0.4,0.3c-0.3,0.2-0.3,0.5-0.6,0.8   c-0.3,0.2-0.5,0.2-0.8,0.4c-0.1,0.1-0.1,0.2-0.2,0.3l-0.3,1.7c0-0.2-0.1,0.3-0.2,0.5c-0.2,0.2-0.3,0.2-0.5,0.2h-1.7   c-0.2,0-0.3,0-0.3-0.1c0-0.1,0-0.1,0.1-0.2c1.3-1.6,1.1-1.3,1.7-2c0.2-0.2,0.2-0.4,0.3-0.7c0-0.3,0-0.4-0.1-0.7   c-0.2-2.2-0.7-3.5-1.4-5.6c-0.3-1-0.7-1.8-1-2.6c-0.3-1-0.6-2-0.4-3.3c0.1-0.8,0.5-2,0.5-2c0.1,0.3,0.2,0.4,0.4,0.6   c0.2,0.2,0.4,0.3,0.7,0.4c0.1-0.5,0.2-0.7,0.5-1.2c0.2-0.4,0.4-0.6,0.7-0.9c0.3,0.1,0.5,0.2,0.8,0.3c0.4,0.1,0.5,0.2,0.9,0.3   c0.2-0.2,0.2-0.3,0.3-0.5c0.1-0.2,0.1-0.4,0-0.6c0.5,0.3,0.9,0.3,1.4,0.3c0.7-0.1,1.2-0.3,1.6-0.9c0.1,0.5,0.1,0.8,0.1,1.3   c-0.1,0.4-0.2,0.7-0.4,1.1c-0.1,0-0.1,0.2,0,0.2c0.1,0,0.1,0,0.1-0.1c0.4-0.2,0.6-0.4,1-0.6c0.4-0.3,0.6-0.5,1-0.8   c0.2,0.4,0.2,0.6,0.1,1.1c0,0.4-0.1,0.7-0.4,1c0,0,0,0.1,0,0.1c0,0,0.1,0,0.1,0c0.5-0.1,0.8-0.2,1.1-0.6c0.2-0.3,0.2-0.5,0.4-0.8   c0.2-0.2,0.3-0.3,0.5-0.5c-0.1,0.3-0.1,0.4,0,0.8c0,0.3,0.2,0.6,0.4,0.7c0,0,0,0.1,0.1,0c0,0,0.1,0,0.1,0c0-0.3,0.1-0.5,0.3-0.7   c0.2-0.3,0.3-0.4,0.6-0.5c0,0.3,0.1,0.5,0.2,0.8c0.2,0.2,0.3,0.4,0.5,0.5c0,0,0.1,0,0.1,0c0,0,0,0,0,0c0.1-0.3,0.2-0.4,0.4-0.7   c0.2-0.2,0.3-0.3,0.6-0.4c0,0.4,0.1,0.6,0.2,0.9c0.1,0.2,0.3,0.4,0.5,0.5c0,0,0.1,0,0.1,0c0,0,0-0.1,0-0.1c-0.1-0.4-0.1-0.7,0.1-1   c0.1-0.2,0.2-0.3,0.4-0.5c0.1,0.3,0.1,0.5,0.3,0.7c0.2,0.3,0.3,0.4,0.5,0.6c0,0.1,0.1,0.1,0.1,0c0,0,0-0.1,0-0.1   c-0.1-0.4-0.1-0.6,0.1-1c0.2-0.3,0.2-0.3,0.4-0.4c0,0.3,0.2,0.5,0.5,0.6c0.3,0.1,0.5,0.1,0.7-0.1c0,0,0.1-0.1,0.1,0   c0,0.1-0.1-0.1-0.1-0.1c-0.6-0.6-0.8-1.7-0.2-2.3c0.6-0.6,1.5-0.7,2.1-0.1c0.3,0.3,0.3,0.8,0,1.1c-0.3,0.3-0.8,0.3-1.1,0   c-0.1-0.1-0.1-0.3-0.1-0.3c0,0,0-0.1,0-0.1c0,0-0.1,0-0.1,0.1c0,0.1,0,0.2,0,0.3c0,0.4,0.3,0.7,0.7,0.7c0.7,0.1,1.5-0.6,1.7-1.4   c0.4-1.4,1.2-4.6,4.2-4.6c1.9,0,3.2,1.3,3.2,3l0,0c0,0.1,0,0.2,0,0.2c0,1.1-0.7,2-1.4,2.3c1,0.8,1.5,1.1,2.3,2.6   c0.6,1.2,0.8,1.9,1.3,3c0.1,0.3,0.2,0.6,0.5,0.8C70.3,23.8,70.4,23.8,70.5,23.9L70.5,23.9z M66.3,15.1c0,0,0-0.2,0-0.2   c0-1-0.9-1.6-1.8-1.7c-1-0.1-1.6,0.4-2.2,1.5c-0.5,0.9-0.6,1.4-1.1,2.3c-0.3,0.5-0.4,0.6-1,1.2c-0.1,0-0.1,0.1-0.1,0.1   c0,0.1,0.1,0.1,0.2,0c0.8-0.2,1.2-0.4,1.8-0.9c0.5-0.4,0.7-0.7,1.1-1.3c0,0,0-0.1,0-0.1c0.1,0,0.1,0,0.2,0.1   c0.4,0.5,0.8,0.6,1.4,0.6C65.6,16.7,66.2,15.9,66.3,15.1L66.3,15.1z M41.8,10.8c0.1,0.2,0.4,0.3,0.7,0.2c0.2-0.1,0.3-0.4,0.2-0.6   c-0.1-0.2-0.4-0.3-0.6-0.2C41.8,10.3,41.7,10.6,41.8,10.8L41.8,10.8z"></path>
</g>
</svg>
