<?xml version="1.0" encoding="UTF-8"?>
<svg xmlns="http://www.w3.org/2000/svg" id="a" viewBox="0 0 110 55">
  <defs>
    <style>
      .cls-1 {
        fill: #ef3842;
      }

      .cls-2 {
        fill: #25347a;
      }
    </style>
  </defs>
  <path class="cls-1" d="M44.25,2.22c.09-.09,.18-.13,.26-.13,.14,0,.23,.12,.23,.27,0,.09-.04,.18-.13,.27-3.38,4.2-5.83,9.1-5.83,15.91s2.45,11.61,5.83,15.81c.09,.08,.12,.18,.13,.27,0,.14-.09,.27-.23,.27-.08,0-.17-.04-.26-.13l-14.38-13.91c-.72-.61-1.18-1.33-1.18-2.35s.46-1.74,1.18-2.35L44.25,2.22"></path>
  <path class="cls-2" d="M55.31,1.05c-5.63,0-7.83,7.98-7.83,17.49s2.2,17.39,7.83,17.39c3.38,0,6.26-1.98,6.27-3.61,0-.35-.13-.69-.43-.99-1.6-1.55-2.23-3.09-2.23-4.46-.01-2.6,2.25-4.55,4.33-4.55,2.87,0,4.56,2.25,4.56,5.17,0,2.76-1.18,5.07-2.46,6.91-.05,.08-.07,.16-.07,.23,0,.14,.09,.26,.21,.26,.08,0,.17-.04,.27-.14l14.39-13.91c.72-.61,1.18-1.33,1.18-2.35s-.46-1.74-1.18-2.35l-14.38-13.91c-.1-.1-.19-.14-.27-.14-.13,0-.21,.12-.21,.26,0,.07,.02,.16,.07,.23,1.28,1.84,2.46,4.14,2.46,6.9,0,2.91-1.69,5.17-4.56,5.17-2.08,0-4.35-1.94-4.33-4.55,0-1.37,.63-2.91,2.23-4.46,.3-.3,.43-.64,.43-1-.01-1.63-2.89-3.61-6.27-3.61"></path>
  <path class="cls-2" d="M31.99,51.44c0-.74,.32-1.35,.88-1.75,.55-.41,1.32-.62,2.22-.62,.56,0,1.14,.1,1.53,.27v-.84c-.01-.84-.33-1.32-1.27-1.33-.18,0-.57,.05-.9,.16,.03,.12,.05,.25,.05,.36,0,.28-.09,.54-.26,.73-.17,.19-.42,.31-.72,.31-.55,0-.96-.45-.96-1,.01-1.02,1.25-1.71,2.91-1.71,1.31,0,2.14,.31,2.58,.88,.4,.51,.42,1.25,.42,2.3v2.74c0,.53,.31,.67,.97,.78h.07v.09c-.04,.72-.57,1.02-1.14,1.06-.05,0-.1,0-.15,0-.56,0-1.1-.27-1.36-.83-.36,.3-1.15,.85-2.18,.85-1.53,0-2.69-1.03-2.69-2.45m46.94,2.09c-.14-.19-.21-.43-.28-.71-.07,.09-.16,.18-.3,.31-.5,.47-1.15,.75-1.89,.75-.8,0-1.48-.31-1.92-.82-.67-.8-.67-1.81-.67-3.25v-1.38c-.01-.56-.19-.75-.71-.77-.06,0-.14,0-.22,.01h-.06l-.03-.05c-.04-.1-.06-.2-.06-.3,.02-.67,.86-1.03,1.36-1.13,.17-.03,.34-.05,.5-.06,.41,0,.7,.13,.89,.36,.19,.24,.26,.56,.26,.93v2.37c-.02,.87,.05,1.53,.24,1.95,.2,.42,.49,.61,1.03,.62,.59,0,.95-.26,1.18-.64,.23-.38,.31-.9,.31-1.39v-1.91c-.01-.56-.19-.75-.71-.77-.07,0-.14,0-.22,.01h-.06l-.03-.05c-.04-.1-.06-.2-.06-.3,.01-.67,.86-1.03,1.36-1.13,.17-.03,.34-.05,.5-.05,.4,0,.71,.13,.89,.36,.19,.24,.27,.56,.27,.93,0,.27-.02,.75-.02,2.77,0,.85-.02,1.3-.02,1.44,.01,.58,.21,.84,.74,.85,.06,0,.12,0,.19-.01h.06l.02,.05c.04,.1,.06,.2,.06,.29-.02,.65-.87,.92-1.37,1.01-.17,.03-.33,.05-.46,.05h-.01c-.38,0-.64-.13-.8-.36m-26.88-3.45c0-1.18,.39-2.19,1.06-2.91,.68-.72,1.64-1.15,2.79-1.15,1.05,0,1.82,.39,2.33,.94,.5,.55,.75,1.27,.75,1.93,0,.39-.09,.75-.25,1.06l-.02,.04h-4.66c.08,1.36,.94,2.3,2.44,2.31,.93,0,1.64-.51,1.88-.81l.05-.06,.06,.05c.14,.1,.28,.27,.28,.61,0,.78-.92,1.78-2.95,1.79-2.06,0-3.74-1.65-3.74-3.8m16.51,3.78c-1.05,0-2-.4-2.7-1.09-.7-.69-1.13-1.67-1.13-2.85,0-2.32,1.83-3.9,3.89-3.91,1.11,0,2.07,.4,2.75,1.08,.69,.69,1.08,1.67,1.08,2.82s-.42,2.15-1.12,2.84c-.7,.69-1.68,1.09-2.79,1.09h0Zm14.28-.23c-.32-.09-.53-.27-.53-.53,0-.1,.03-.22,.09-.34l.02-.04h.04c.12-.03,.33-.1,.51-.24,.19-.16,.27-.38,.27-1v-3.13c-.02-.53-.14-.71-.57-.72-.1,0-.22,.01-.35,.04h-.07l-.02-.05c-.04-.12-.07-.23-.07-.34,.02-.63,.7-.95,1.16-1.09,.19-.06,.35-.09,.52-.09,.62,0,.97,.45,1.11,1.02,.41-.67,1.06-1.12,1.71-1.12,.6,0,1.21,.39,1.22,1.15,0,.53-.38,1.09-1.01,1.09-.47,0-.88-.31-.97-.76-.36,.12-.86,.56-.86,2.11v1.89c0,.62,.09,.84,.26,1,.18,.14,.55,.21,.68,.23h.04l.02,.05c.06,.13,.09,.26,.09,.37,0,.25-.18,.43-.49,.51-.31,.09-.76,.13-1.36,.13s-1.1-.04-1.43-.13m-22.57,0c-.32-.09-.53-.27-.53-.53,0-.1,.03-.22,.09-.34l.02-.04h.04c.13-.03,.33-.09,.51-.24,.19-.16,.27-.38,.27-1v-4.11l-1.1-.04-.02-.05c-.06-.14-.08-.26-.08-.39,0-.4,.31-.67,.7-.67h.49v-.45c0-1.1,.2-1.73,.48-2.15,.43-.67,1.18-1.13,2.32-1.13,1.43,0,2.63,.67,2.64,1.74,0,.46-.32,1.04-1,1.04-.5,0-.97-.42-.97-.96,0-.2,.07-.4,.16-.54-.15-.13-.44-.21-.72-.21-.44,0-.69,.16-.84,.41-.15,.26-.2,.63-.2,1.05v1.18h1.9l.02,.05c.06,.14,.09,.27,.09,.4,0,.41-.3,.72-.67,.75-.14,.01-.29,.01-.42,.01-.32,0-.63-.02-.86-.03v4.08c0,.62,.1,.84,.29,1,.17,.13,.64,.21,.78,.23h.04l.02,.05c.05,.11,.08,.21,.08,.31,0,.28-.23,.46-.58,.55-.35,.1-.85,.14-1.48,.14s-1.11-.04-1.43-.13m-13.24,0c-.32-.09-.53-.27-.53-.53,0-.1,.03-.22,.09-.34l.02-.04h.04c.13-.03,.33-.09,.52-.24,.19-.16,.27-.38,.27-1v-3.13c-.02-.53-.14-.71-.57-.72-.1,0-.22,.01-.35,.04h-.07l-.02-.05c-.05-.12-.07-.23-.07-.34,.01-.62,.7-.94,1.16-1.09,.18-.06,.35-.09,.51-.09,.63,0,.97,.44,1.11,1.01,.41-.66,1.07-1.1,1.71-1.1,.6,0,1.22,.39,1.22,1.15,0,.53-.38,1.09-1.01,1.09-.47,0-.87-.31-.96-.76-.36,.12-.87,.56-.87,2.11v1.89c0,.62,.09,.84,.28,1,.17,.14,.54,.21,.68,.23h.04l.02,.05c.06,.13,.09,.25,.09,.37,0,.25-.19,.43-.5,.51-.31,.09-.76,.13-1.37,.13s-1.1-.04-1.42-.13m-6.26,0c-.32-.09-.53-.27-.53-.53,0-.1,.03-.22,.09-.34l.02-.04h.04c.13-.03,.33-.09,.51-.24,.19-.16,.27-.38,.27-1v-3.13c-.01-.53-.13-.71-.57-.72-.1,0-.22,.01-.35,.04h-.07l-.03-.05c-.05-.12-.07-.23-.07-.34,0-.62,.7-.94,1.16-1.09,.18-.06,.35-.09,.51-.09,.63,0,.97,.44,1.12,1.01,.41-.66,1.07-1.1,1.71-1.1,.6,0,1.21,.39,1.21,1.15,0,.53-.38,1.09-1.01,1.09-.46,0-.87-.31-.95-.76-.36,.12-.87,.56-.88,2.11v1.89c0,.62,.09,.84,.28,1,.18,.14,.55,.21,.68,.23h.04l.02,.05c.06,.13,.1,.25,.1,.37,0,.25-.19,.43-.49,.51-.31,.09-.76,.13-1.37,.13s-1.1-.04-1.42-.13m26.1-3.92c0,2.06,.9,2.94,1.78,2.94,1,0,1.73-.89,1.73-2.62,0-.9-.2-1.63-.53-2.12-.33-.49-.77-.75-1.29-.75-1.04,0-1.69,.94-1.69,2.55m-31.46,.43c-.83,0-1.38,.4-1.39,1.16,0,.73,.49,1.21,1.27,1.22,.5,0,1-.28,1.33-.67v-1.06c0-.14-.09-.3-.3-.43-.2-.13-.51-.22-.91-.22m21.39-1.24c.15,0,.19-.04,.22-.08,.03-.05,.04-.15,.04-.27-.01-.72-.57-1.38-1.43-1.38-1.08,0-1.51,.86-1.58,1.73h2.75Zm-33.17,3.62c-.91-.93-1.49-2.29-1.49-3.99,0-1.62,.57-2.99,1.46-3.95,.89-.96,2.11-1.52,3.39-1.52,2.3,0,3.92,1.61,3.94,3,0,.75-.47,1.32-1.11,1.32-.31,0-.61-.11-.83-.31-.22-.21-.35-.5-.35-.86,0-.44,.22-.7,.39-.89-.3-.52-.9-.96-1.84-.96-.8,0-1.47,.41-1.95,1.14-.48,.73-.77,1.77-.77,3.01s.3,2.28,.8,3c.5,.73,1.18,1.14,1.98,1.14,.94,0,1.54-.43,1.84-.96-.17-.18-.39-.45-.39-.88,0-.36,.13-.66,.35-.87,.22-.2,.51-.31,.83-.31,.64,0,1.1,.57,1.11,1.31-.01,1.4-1.64,3-3.94,3.01-1.28,0-2.51-.51-3.42-1.44"></path>
</svg>
