<?xml version="1.0" encoding="UTF-8"?>
<svg xmlns="http://www.w3.org/2000/svg" id="Layer_1" data-name="Layer 1" viewBox="0 0 110 55">
  <defs>
    <style>
      .cls-1 {
        fill: #f63;
      }

      .cls-1, .cls-2 {
        fill-rule: evenodd;
      }

      .cls-2 {
        fill: #06c;
      }
    </style>
  </defs>
  <g id="HOMEPAGE">
    <g id="Homepage-_-MENU-1" data-name="Homepage-/-MENU-1" transform="translate(-100.000000, -19.000000)">
      <g id="Logotype-_-Classic" data-name="Logotype-/-Classic" transform="translate(100.000000, 19.000000)">
        <path id="Fill-1" class="cls-1" d="M13.86,30.63c.92,0,1.66,.75,1.66,1.67s-.74,1.67-1.66,1.67-1.66-.75-1.66-1.67,.74-1.67,1.66-1.67"></path>
        <path id="Fill-18" class="cls-1" d="M93.24,20.59c1.12-.82,2.49-1.3,3.97-1.3,3.73,0,6.75,3.05,6.75,6.81,0,2.38-1.21,4.47-3.03,5.69v-2.67h-2.92s-.31,1.5-1.55,1.5h-.97v-5.61c0-.58,.47-1.04,1.05-1.07v-3.33h-3.29Z"></path>
        <polygon id="Fill-6" class="cls-2" points="20.33 21.6 20.33 31.28 25.06 31.28 25.06 33.83 17.26 33.83 17.26 21.6 20.33 21.6"></polygon>
        <path id="Fill-8" class="cls-2" d="M35.58,30.77v.14c0,2.22-1.43,3.01-4.58,3.01-3.89,0-5.07-.94-5.07-5.01s1.34-4.9,4.85-4.9,4.81,.96,4.81,4.59v.85h-6.94v.39c0,1.66,.67,2.1,2.21,2.1,1.34,0,1.99-.23,2.05-1.18h2.68Zm-6.94-2.91h4.26v-.33c-.02-1.27-.56-1.5-2.13-1.5s-2.13,.24-2.13,1.83Z"></path>
        <polygon id="Fill-10" class="cls-2" points="48.78 33.83 51.52 33.83 51.52 21.6 48.78 21.6 48.78 33.83"></polygon>
        <path id="Fill-12" class="cls-2" d="M42.28,31.81c1.36,0,1.92-.3,1.95-1.51h2.66c0,2.84-1.29,3.64-4.78,3.64s-4.73-1.06-4.73-4.96,1.24-4.96,4.73-4.96,4.76,.79,4.78,3.61h-2.66c-.03-1.19-.6-1.48-1.95-1.48-1.63,0-2.11,.3-2.11,2.83s.48,2.83,2.11,2.83"></path>
        <path id="Fill-13" class="cls-2" d="M63.22,30.77v.14c0,2.22-1.43,3.01-4.58,3.01-3.89,0-5.08-.94-5.08-5.01s1.34-4.9,4.85-4.9,4.81,.96,4.81,4.59v.85h-6.94v.39c0,1.66,.67,2.1,2.21,2.1,1.34,0,1.99-.23,2.05-1.18h2.68Zm-6.94-2.91h4.26v-.33c-.02-1.27-.56-1.5-2.13-1.5s-2.13,.24-2.13,1.83Z"></path>
        <path id="Fill-14" class="cls-2" d="M76.56,31.81c1.36,0,1.92-.3,1.95-1.51h2.66c-.01,2.84-1.29,3.64-4.78,3.64s-4.73-1.06-4.73-4.96,1.24-4.96,4.73-4.96,4.76,.79,4.78,3.61h-2.66c-.03-1.19-.6-1.48-1.95-1.48-1.63,0-2.11,.3-2.11,2.83s.48,2.83,2.11,2.83"></path>
        <path id="Fill-15" class="cls-2" d="M70.98,26.53s-.67,0-.75,0c-1.5,0-2.23,.89-2.23,2.8v4.51h-2.74v-9.64h2.74v1.44c.66-1.09,1.51-1.6,2.65-1.61h.33v2.51Z"></path>
        <path id="Fill-16" class="cls-2" d="M90.36,23.27v-1.67h5.18v1.67c-.58,.16-1.05,.66-1.05,1.37v6.96h1.97c.99,0,1.85-.61,2.21-1.48h1.27v3.7h-9.58v-2.16c.6-.15,1.05-.72,1.05-1.35v-5.62c0-.79-.49-1.28-1.05-1.42"></path>
        <path id="Fill-17" class="cls-2" d="M83.78,27.03c0-6.83,5.48-12.36,12.25-12.36s12.25,5.53,12.25,12.36-5.49,12.36-12.25,12.36-12.25-5.53-12.25-12.36m2.54,0c0,5.41,4.35,9.79,9.71,9.79s9.71-4.38,9.71-9.79-4.35-9.79-9.71-9.79-9.71,4.38-9.71,9.79"></path>
        <polygon id="Fill-3" class="cls-2" points="4.78 24.15 4.78 26.44 9.8 26.44 9.8 28.73 4.78 28.73 4.78 31.28 10.57 31.28 10.57 33.83 1.72 33.83 1.72 21.6 10.49 21.6 10.49 24.15 4.78 24.15"></polygon>
      </g>
    </g>
  </g>
</svg>
