<svg width="159" height="45" viewBox="0 0 159 45" fill="none" xmlns="http://www.w3.org/2000/svg">
<path d="M146 1H13C6.37258 1 1 6.37258 1 13V32C1 38.6274 6.37258 44 13 44H146C152.627 44 158 38.6274 158 32V13C158 6.37258 152.627 1 146 1Z" fill="#141414"/>
<path fill-rule="evenodd" clip-rule="evenodd" d="M45.0746 21.4961C45.0474 18.4752 47.5334 17.0053 47.6472 16.9371C46.2391 14.8723 44.057 14.5901 43.2902 14.5676C41.4575 14.3738 39.68 15.671 38.7461 15.671C37.7939 15.671 36.3562 14.5863 34.8068 14.6182C32.8129 14.6494 30.9475 15.8107 29.9246 17.6137C27.8132 21.2908 29.3877 26.6943 31.4106 29.6663C32.4228 31.122 33.6048 32.7471 35.1524 32.6903C36.6667 32.6272 37.2322 31.7189 39.0594 31.7189C40.8696 31.7189 41.4007 32.6903 42.979 32.6535C44.6042 32.6272 45.6274 31.1913 46.6037 29.7225C47.773 28.0543 48.2423 26.4111 48.2613 26.3269C48.223 26.3137 45.1053 25.1167 45.0746 21.4961Z" fill="white"/>
<path fill-rule="evenodd" clip-rule="evenodd" d="M42.0918 12.613C42.9062 11.5886 43.4634 10.1947 43.3087 8.78027C42.1301 8.83297 40.6558 9.60049 39.8074 10.6024C39.0561 11.4853 38.3855 12.9326 38.5588 14.2937C39.8825 14.3928 41.242 13.6215 42.0918 12.613Z" fill="white"/>
<path fill-rule="evenodd" clip-rule="evenodd" d="M63.359 27.2802L62.3107 24.0229C62.2001 23.6905 61.9923 22.907 61.6855 21.6735H61.6483C61.5263 22.2039 61.3296 22.9874 61.0594 24.0229L60.03 27.2802H63.359ZM66.9837 32.4812H64.8674L63.7084 28.8173H59.6795L58.5757 32.4812H56.5156L60.507 20.0078H62.9723L66.9837 32.4812Z" fill="white"/>
<path fill-rule="evenodd" clip-rule="evenodd" d="M75.2269 27.947C75.2269 27.0717 75.0315 26.3499 74.6383 25.7817C74.2086 25.1896 73.632 24.8932 72.9087 24.8932C72.4186 24.8932 71.9734 25.0583 71.5754 25.3834C71.1767 25.7117 70.9158 26.1402 70.7938 26.6703C70.7324 26.9178 70.7014 27.1202 70.7014 27.2797V28.7794C70.7014 29.4335 70.901 29.9858 71.2997 30.4364C71.6984 30.8871 72.2167 31.1121 72.8539 31.1121C73.6021 31.1121 74.1845 30.8216 74.6007 30.2427C75.0184 29.6623 75.2269 28.8976 75.2269 27.947ZM77.2508 27.8739C77.2508 29.4037 76.8397 30.6125 76.0178 31.5004C75.2821 32.2904 74.3678 32.6849 73.2767 32.6849C72.0992 32.6849 71.2532 32.2596 70.738 31.4085H70.7007V36.1464H68.7144V26.4484C68.7144 25.4867 68.6889 24.4998 68.6406 23.4875H70.3875L70.4984 24.913H70.5357C71.1984 23.839 72.2036 23.3027 73.5528 23.3027C74.6073 23.3027 75.4878 23.7219 76.1922 24.5604C76.8986 25.4004 77.2508 26.5045 77.2508 27.8739Z" fill="white"/>
<path fill-rule="evenodd" clip-rule="evenodd" d="M85.5075 27.947C85.5075 27.0717 85.311 26.3499 84.9178 25.7817C84.4881 25.1896 83.9133 24.8932 83.1892 24.8932C82.6985 24.8932 82.254 25.0583 81.8549 25.3834C81.4562 25.7117 81.1963 26.1402 81.0743 26.6703C81.0137 26.9178 80.982 27.1202 80.982 27.2797V28.7794C80.982 29.4335 81.1815 29.9858 81.5785 30.4364C81.9772 30.8864 82.4952 31.1121 83.1345 31.1121C83.8826 31.1121 84.465 30.8216 84.8817 30.2427C85.299 29.6623 85.5075 28.8976 85.5075 27.947ZM87.5314 27.8739C87.5314 29.4037 87.1206 30.6125 86.2977 31.5004C85.5623 32.2904 84.6483 32.6849 83.5573 32.6849C82.3797 32.6849 81.5337 32.2596 81.0196 31.4085H80.982V36.1464H78.9956V26.4484C78.9956 25.4867 78.9705 24.4998 78.9219 23.4875H80.6691L80.78 24.913H80.8173C81.4789 23.839 82.4842 23.3027 83.8344 23.3027C84.8879 23.3027 85.7684 23.7219 86.4748 24.5604C87.1782 25.4004 87.5314 26.5045 87.5314 27.8739Z" fill="white"/>
<path fill-rule="evenodd" clip-rule="evenodd" d="M99.0363 28.9834C99.0363 30.0446 98.6703 30.9078 97.9349 31.5741C97.1271 32.3024 96.0026 32.6661 94.5573 32.6661C93.2233 32.6661 92.1533 32.4075 91.3438 31.8892L91.8042 30.2235C92.6764 30.7539 93.633 31.0201 94.6758 31.0201C95.424 31.0201 96.0064 30.8495 96.4248 30.5102C96.8411 30.1711 97.0489 29.7156 97.0489 29.1474C97.0489 28.6413 96.8772 28.2149 96.5333 27.8692C96.1915 27.5233 95.6204 27.2016 94.8226 26.9045C92.6523 26.0902 91.5674 24.8969 91.5674 23.3279C91.5674 22.3025 91.9479 21.4618 92.7088 20.8076C93.4673 20.1524 94.4791 19.8252 95.7445 19.8252C96.8728 19.8252 97.8101 20.0231 98.5583 20.4176L98.0617 22.0466C97.3631 21.6643 96.5729 21.4729 95.6883 21.4729C94.9898 21.4729 94.4439 21.6462 94.0524 21.9915C93.7216 22.2997 93.5558 22.6755 93.5558 23.1206C93.5558 23.6139 93.745 24.0216 94.1251 24.3419C94.456 24.6383 95.0566 24.959 95.9289 25.3046C96.9958 25.7369 97.7794 26.242 98.2833 26.8213C98.7854 27.3985 99.0363 28.1213 99.0363 28.9834Z" fill="white"/>
<path fill-rule="evenodd" clip-rule="evenodd" d="M105.602 24.987H103.412V29.3536C103.412 30.4643 103.798 31.0193 104.571 31.0193C104.926 31.0193 105.22 30.9885 105.453 30.9264L105.508 32.4438C105.117 32.5911 104.602 32.6649 103.964 32.6649C103.179 32.6649 102.566 32.4244 102.123 31.9435C101.683 31.4617 101.461 30.6536 101.461 29.5186V24.9852H100.156V23.4852H101.461V21.8385L103.412 21.2461V23.4852H105.602V24.987Z" fill="white"/>
<path fill-rule="evenodd" clip-rule="evenodd" d="M113.415 27.975C113.415 27.1455 113.239 26.4341 112.882 25.841C112.466 25.123 111.871 24.7649 111.099 24.7649C110.301 24.7649 109.694 25.1237 109.278 25.841C108.92 26.4352 108.744 27.158 108.744 28.0125C108.744 28.8421 108.92 29.5534 109.278 30.1459C109.707 30.8638 110.307 31.2219 111.082 31.2219C111.84 31.2219 112.435 30.8565 112.865 30.1272C113.231 29.5226 113.415 28.8036 113.415 27.975ZM115.476 27.9102C115.476 29.2931 115.083 30.4281 114.299 31.3155C113.476 32.2293 112.384 32.6849 111.023 32.6849C109.711 32.6849 108.667 32.2474 107.887 31.3717C107.108 30.4964 106.719 29.3912 106.719 28.0596C106.719 26.6657 107.12 25.5241 107.924 24.6366C108.726 23.7481 109.809 23.3037 111.17 23.3037C112.482 23.3037 113.537 23.7416 114.334 24.6176C115.096 25.468 115.476 26.5655 115.476 27.9102Z" fill="white"/>
<path fill-rule="evenodd" clip-rule="evenodd" d="M121.94 25.2448C121.743 25.2084 121.533 25.1896 121.314 25.1896C120.615 25.1896 120.074 25.4548 119.694 25.9863C119.363 26.455 119.198 27.0471 119.198 27.7623V32.4814H117.212L117.231 26.3201C117.231 25.2832 117.206 24.3393 117.156 23.4885H118.887L118.959 25.2091H119.014C119.224 24.6176 119.554 24.1417 120.007 23.7846C120.45 23.4629 120.928 23.3027 121.443 23.3027C121.627 23.3027 121.792 23.3159 121.94 23.3391V25.2448Z" fill="white"/>
<path fill-rule="evenodd" clip-rule="evenodd" d="M128.927 27.0409C128.94 26.4484 128.81 25.9367 128.541 25.5045C128.198 24.9487 127.669 24.6714 126.958 24.6714C126.309 24.6714 125.78 24.9422 125.377 25.4857C125.046 25.918 124.85 26.4363 124.789 27.0398H128.927V27.0409ZM130.821 27.5591C130.821 27.9173 130.798 28.2189 130.748 28.4653H124.789C124.812 29.3538 125.1 30.0337 125.654 30.5023C126.156 30.9211 126.805 31.1312 127.603 31.1312C128.485 31.1312 129.29 30.9898 130.014 30.7055L130.326 32.0929C129.48 32.4641 128.481 32.6486 127.328 32.6486C125.942 32.6486 124.853 32.2381 124.062 31.4179C123.271 30.5977 122.875 29.4963 122.875 28.1149C122.875 26.7587 123.243 25.6293 123.98 24.7286C124.752 23.767 125.794 23.2861 127.107 23.2861C128.395 23.2861 129.37 23.767 130.033 24.7286C130.557 25.4923 130.821 26.4373 130.821 27.5591Z" fill="white"/>
<path fill-rule="evenodd" clip-rule="evenodd" d="M61.6729 12.3619C61.6729 11.6467 61.4847 11.0983 61.108 10.7159C60.7317 10.3345 60.1821 10.1432 59.458 10.1432C59.1506 10.1432 58.8887 10.164 58.672 10.207V14.7892C58.7919 14.8083 59.0117 14.8166 59.3315 14.8166C60.0787 14.8166 60.6552 14.6076 61.0619 14.1895C61.4678 13.7714 61.6729 13.1623 61.6729 12.3619ZM62.7026 12.3345C62.7026 13.4379 62.3735 14.2685 61.7166 14.826C61.108 15.3404 60.2437 15.5983 59.1237 15.5983C58.5682 15.5983 58.093 15.5741 57.6953 15.5252V9.49734C58.2143 9.4131 58.7733 9.37012 59.377 9.37012C60.444 9.37012 61.248 9.60342 61.7904 10.07C62.3979 10.598 62.7026 11.3524 62.7026 12.3345Z" fill="white"/>
<path fill-rule="evenodd" clip-rule="evenodd" d="M67.1484 13.3297C67.1484 12.9221 67.0608 12.5723 66.8865 12.2811C66.6818 11.9285 66.3899 11.7524 66.0108 11.7524C65.6186 11.7524 65.3202 11.9285 65.1155 12.2811C64.9401 12.5723 64.8536 12.9276 64.8536 13.3474C64.8536 13.7554 64.9411 14.1049 65.1155 14.3964C65.3267 14.7486 65.6214 14.9251 66.0015 14.9251C66.374 14.9251 66.6666 14.7459 66.8772 14.3871C67.0581 14.0896 67.1484 13.7374 67.1484 13.3297ZM68.1612 13.2978C68.1612 13.9773 67.9682 14.5341 67.5826 14.9709C67.178 15.4198 66.6425 15.6437 65.9736 15.6437C65.3288 15.6437 64.8153 15.4292 64.4325 14.9979C64.0503 14.5677 63.8594 14.0252 63.8594 13.371C63.8594 12.6867 64.0558 12.1251 64.4511 11.6897C64.846 11.2536 65.3771 11.0352 66.0463 11.0352C66.6907 11.0352 67.209 11.2497 67.6012 11.68C67.9741 12.098 68.1612 12.6378 68.1612 13.2978Z" fill="white"/>
<path fill-rule="evenodd" clip-rule="evenodd" d="M75.4809 11.125L74.1065 15.5436H73.2122L72.6429 13.6248C72.4986 13.1457 72.381 12.6697 72.2897 12.1972H72.2718C72.187 12.6829 72.0699 13.1582 71.9189 13.6248L71.3141 15.5436H70.4095L69.1172 11.125H70.1207L70.6173 13.2255C70.7372 13.7222 70.8361 14.1954 70.9154 14.6437H70.933C71.0057 14.2741 71.126 13.804 71.2955 13.2348L71.9189 11.126H72.7146L73.3118 13.1901C73.4562 13.6931 73.5734 14.1777 73.664 14.6444H73.6909C73.7571 14.1899 73.857 13.7052 73.989 13.1901L74.5221 11.126H75.4809V11.125Z" fill="white"/>
<path fill-rule="evenodd" clip-rule="evenodd" d="M80.5454 15.5444H79.5691V13.0137C79.5691 12.2337 79.2744 11.8441 78.6837 11.8441C78.3939 11.8441 78.1599 11.9508 77.9783 12.1654C77.7984 12.38 77.7071 12.6331 77.7071 12.9229V15.5433H76.7308V12.3883C76.7308 12.0004 76.7187 11.5795 76.6953 11.124H77.5534L77.5992 11.8149H77.6261C77.7398 11.6003 77.9094 11.4232 78.132 11.2814C78.3967 11.1167 78.693 11.0332 79.0173 11.0332C79.4271 11.0332 79.7682 11.1663 80.0395 11.4333C80.3765 11.7605 80.5454 12.249 80.5454 12.8972V15.5444Z" fill="white"/>
<path fill-rule="evenodd" clip-rule="evenodd" d="M82.2656 15.5436H83.2412V9.09766H82.2656V15.5436Z" fill="white"/>
<path fill-rule="evenodd" clip-rule="evenodd" d="M87.9758 13.3297C87.9758 12.9221 87.8879 12.5723 87.7139 12.2811C87.5096 11.9285 87.2173 11.7524 86.8389 11.7524C86.4461 11.7524 86.1476 11.9285 85.9436 12.2811C85.7686 12.5723 85.6817 12.9276 85.6817 13.3474C85.6817 13.7554 85.7692 14.1049 85.9436 14.3964C86.1552 14.7486 86.4495 14.9251 86.8296 14.9251C87.2025 14.9251 87.494 14.7459 87.7046 14.3871C87.8862 14.0896 87.9758 13.7374 87.9758 13.3297ZM88.9893 13.2978C88.9893 13.9773 88.7967 14.5341 88.4107 14.9709C88.0065 15.4198 87.4696 15.6437 86.8017 15.6437C86.1559 15.6437 85.6424 15.4292 85.2606 14.9979C84.8788 14.5677 84.6875 14.0252 84.6875 13.371C84.6875 12.6867 84.8839 12.1251 85.2792 11.6897C85.6741 11.2536 86.2052 11.0352 86.8734 11.0352C87.5192 11.0352 88.0365 11.2497 88.4293 11.68C88.8019 12.098 88.9893 12.6378 88.9893 13.2978Z" fill="white"/>
<path fill-rule="evenodd" clip-rule="evenodd" d="M92.7012 14.0252V13.344C91.624 13.3249 91.0857 13.622 91.0857 14.2342C91.0857 14.4647 91.147 14.6374 91.2728 14.7525C91.3986 14.8679 91.5588 14.9251 91.7497 14.9251C91.9641 14.9251 92.1643 14.8565 92.3473 14.7206C92.5306 14.584 92.6433 14.4103 92.6854 14.1978L92.7012 14.0252ZM93.7147 15.5436H92.838L92.7657 15.0346H92.7384C92.4383 15.4406 92.0106 15.6437 91.4554 15.6437C91.0409 15.6437 90.7056 15.5099 90.453 15.2437C90.2238 15.0017 90.1094 14.7012 90.1094 14.3437C90.1094 13.804 90.3327 13.3925 90.7828 13.1079C91.2318 12.8226 91.8635 12.6829 92.6771 12.6894V12.6073C92.6771 12.0249 92.3732 11.7344 91.7646 11.7344C91.3314 11.7344 90.9495 11.8439 90.6197 12.0616L90.4212 11.4168C90.8293 11.1627 91.3331 11.0352 91.9279 11.0352C93.0758 11.0352 93.6517 11.6446 93.6517 12.8628V14.49C93.6517 14.9317 93.673 15.2829 93.7147 15.5436Z" fill="white"/>
<path fill-rule="evenodd" clip-rule="evenodd" d="M98.2511 13.6802V12.9436C98.2511 12.816 98.2422 12.7127 98.2242 12.634C98.1694 12.3979 98.0509 12.1993 97.871 12.0391C97.6894 11.8786 97.4702 11.7982 97.218 11.7982C96.8534 11.7982 96.5684 11.9434 96.3588 12.235C96.151 12.5262 96.0459 12.8985 96.0459 13.353C96.0459 13.7898 96.1455 14.1441 96.3461 14.4169C96.5573 14.7074 96.8423 14.8527 97.1993 14.8527C97.5198 14.8527 97.7759 14.7317 97.9709 14.489C98.1588 14.2651 98.2511 13.995 98.2511 13.6802ZM99.2632 15.5436H98.3965L98.3511 14.8339H98.3238C98.0471 15.3737 97.5757 15.6438 96.9133 15.6438C96.384 15.6438 95.9432 15.4347 95.5938 15.0166C95.2443 14.5986 95.0703 14.056 95.0703 13.3897C95.0703 12.6746 95.2592 12.0953 95.6396 11.6529C96.0077 11.2404 96.4588 11.0341 96.995 11.0341C97.585 11.0341 97.9978 11.2338 98.2325 11.6342H98.2511V9.09766H99.2288V14.3531C99.2288 14.7833 99.2398 15.1799 99.2632 15.5436Z" fill="white"/>
<path fill-rule="evenodd" clip-rule="evenodd" d="M106.603 13.3297C106.603 12.9221 106.515 12.5723 106.341 12.2811C106.135 11.9285 105.844 11.7524 105.464 11.7524C105.073 11.7524 104.774 11.9285 104.569 12.2811C104.394 12.5723 104.307 12.9276 104.307 13.3474C104.307 13.7554 104.395 14.1049 104.569 14.3964C104.78 14.7486 105.075 14.9251 105.455 14.9251C105.828 14.9251 106.121 14.7459 106.332 14.3871C106.511 14.0896 106.603 13.7374 106.603 13.3297ZM107.615 13.2978C107.615 13.9773 107.422 14.5341 107.036 14.9709C106.631 15.4198 106.097 15.6437 105.427 15.6437C104.783 15.6437 104.269 15.4292 103.886 14.9979C103.504 14.5677 103.312 14.0252 103.312 13.371C103.312 12.6867 103.509 12.1251 103.904 11.6897C104.299 11.2536 104.83 11.0352 105.5 11.0352C106.144 11.0352 106.663 11.2497 107.055 11.68C107.427 12.098 107.615 12.6378 107.615 13.2978Z" fill="white"/>
<path fill-rule="evenodd" clip-rule="evenodd" d="M112.865 15.5444H111.889V13.0137C111.889 12.2337 111.594 11.8441 111.003 11.8441C110.713 11.8441 110.479 11.9508 110.299 12.1654C110.118 12.38 110.028 12.6331 110.028 12.9229V15.5433H109.05V12.3883C109.05 12.0004 109.039 11.5795 109.016 11.124H109.873L109.919 11.8149H109.945C110.06 11.6003 110.23 11.4232 110.451 11.2814C110.717 11.1167 111.012 11.0332 111.337 11.0332C111.747 11.0332 112.088 11.1663 112.359 11.4333C112.697 11.7605 112.865 12.249 112.865 12.8972V15.5444Z" fill="white"/>
<path fill-rule="evenodd" clip-rule="evenodd" d="M119.433 11.8613H118.358V14.0076C118.358 14.5532 118.549 14.826 118.927 14.826C119.102 14.826 119.248 14.8111 119.362 14.7799L119.387 15.5253C119.195 15.5984 118.941 15.6348 118.629 15.6348C118.243 15.6348 117.943 15.5166 117.726 15.2805C117.508 15.0444 117.4 14.6468 117.4 14.0894V11.8613H116.758V11.1254H117.4V10.3159L118.357 10.0254V11.1247H119.432V11.8613H119.433Z" fill="white"/>
<path fill-rule="evenodd" clip-rule="evenodd" d="M124.604 15.5436H123.626V13.0316C123.626 12.2395 123.332 11.8433 122.742 11.8433C122.289 11.8433 121.98 12.0727 121.811 12.5321C121.782 12.6285 121.765 12.7467 121.765 12.8853V15.5425H120.789V9.09766H121.765V11.7604H121.783C122.091 11.2761 122.531 11.0341 123.103 11.0341C123.507 11.0341 123.841 11.1673 124.107 11.4342C124.438 11.767 124.604 12.262 124.604 12.9162V15.5436Z" fill="white"/>
<path fill-rule="evenodd" clip-rule="evenodd" d="M129.005 12.872C129.012 12.5804 128.948 12.3294 128.815 12.1176C128.646 11.8448 128.388 11.7079 128.038 11.7079C127.72 11.7079 127.46 11.841 127.261 12.1079C127.099 12.3208 127.003 12.5749 126.972 12.872H129.005ZM129.936 13.1261C129.936 13.3022 129.923 13.4502 129.9 13.5712H126.972C126.985 14.008 127.124 14.3408 127.396 14.5713C127.643 14.7776 127.963 14.8805 128.354 14.8805C128.787 14.8805 129.183 14.8112 129.538 14.6715L129.691 15.3537C129.275 15.5357 128.785 15.6266 128.217 15.6266C127.537 15.6266 127.002 15.4252 126.614 15.022C126.225 14.6192 126.031 14.078 126.031 13.3996C126.031 12.7333 126.211 12.1786 126.574 11.7359C126.952 11.2634 127.463 11.0273 128.109 11.0273C128.741 11.0273 129.221 11.2634 129.545 11.7359C129.807 12.111 129.936 12.5749 129.936 13.1261Z" fill="white"/>
</svg>
