<svg xmlns="http://www.w3.org/2000/svg" version="1.1" xmlns:xlink="http://www.w3.org/1999/xlink" xmlns:svgjs="http://svgjs.dev/svgjs" width="32" height="32"><svg width="32" height="32" viewBox="0 0 32 32" fill="none" xmlns="http://www.w3.org/2000/svg">
<g clip-path="url(#clip0_4842_60372)">
<path d="M28 0H4C1.79086 0 0 1.79086 0 4V28C0 30.2091 1.79086 32 4 32H28C30.2091 32 32 30.2091 32 28V4C32 1.79086 30.2091 0 28 0Z" fill="#0036C2"></path>
<path d="M27 15.5219V15.5306C27 15.6119 26.9688 15.6898 26.9131 15.7473L19.8797 23.0077C19.8519 23.0365 19.8141 23.0526 19.7748 23.0526H19.7303C19.6484 23.0526 19.582 22.984 19.582 22.8995V15.5308C19.582 15.6121 19.5507 15.6899 19.4951 15.7473L12.5052 22.9628C12.4495 23.0203 12.374 23.0525 12.2953 23.0525H12.2868C12.2081 23.0525 12.1326 23.0203 12.0769 22.9628L5.08688 15.7473C5.03123 15.6898 5 15.6119 5 15.5306V15.5219C5 15.4406 5.03123 15.3627 5.08688 15.3052L12.0768 8.08969C12.1325 8.03224 12.2079 8 12.2867 8H12.2952C12.3739 8 12.4494 8.03224 12.505 8.08969L19.495 15.3052C19.5506 15.3627 19.5818 15.4406 19.5818 15.5217V8.15316C19.5818 8.06861 19.6483 8 19.7302 8H19.7747C19.8141 8 19.8517 8.01618 19.8796 8.04491L26.913 15.3054C26.9687 15.3628 27 15.4406 27 15.5219Z" fill="#F5F5F0"></path>
</g>
<defs>
<clipPath id="SvgjsClipPath1001">
<rect width="32" height="32" fill="white"></rect>
</clipPath>
</defs>
</svg><style>@media (prefers-color-scheme: light) { :root { filter: none; } }
@media (prefers-color-scheme: dark) { :root { filter: none; } }
</style></svg>