<svg width="320" height="90" viewBox="0 0 320 90" fill="none" xmlns="http://www.w3.org/2000/svg">
<path d="M294 2H26C12.7452 2 2 12.7452 2 26V64C2 77.2548 12.7452 88 26 88H294C307.255 88 318 77.2548 318 64V26C318 12.7452 307.255 2 294 2Z" fill="black"/>
<path fill-rule="evenodd" clip-rule="evenodd" d="M121.317 27.7155C121.317 29.1834 120.882 30.3521 120.011 31.2237C119.022 32.2604 117.734 32.7787 116.149 32.7787C114.631 32.7787 113.342 32.2535 112.281 31.2019C111.218 30.1496 110.688 28.8451 110.688 27.2894C110.688 25.7325 111.218 24.4292 112.281 23.3775C113.342 22.3253 114.631 21.7988 116.149 21.7988C116.902 21.7988 117.623 21.9465 118.307 22.2393C118.992 22.534 119.541 22.9246 119.951 23.4143L119.027 24.3388C118.331 23.5071 117.373 23.0916 116.149 23.0916C115.042 23.0916 114.086 23.4797 113.279 24.2585C112.47 25.0366 112.067 26.0465 112.067 27.2894C112.067 28.5323 112.47 29.5422 113.279 30.321C114.086 31.0991 115.042 31.4872 116.149 31.4872C117.324 31.4872 118.302 31.0966 119.085 30.3141C119.594 29.8039 119.888 29.0949 119.966 28.1847H116.149V26.9225H121.243C121.293 27.1972 121.317 27.4607 121.317 27.7155Z" fill="white"/>
<path fill-rule="evenodd" clip-rule="evenodd" d="M129.395 23.3257H124.608V26.6582H128.925V27.9204H124.608V31.2528H129.395V32.5443H123.258V22.0342H129.395V23.3257Z" fill="white"/>
<path fill-rule="evenodd" clip-rule="evenodd" d="M135.093 32.5443H133.741V23.3257H130.805V22.0342H138.029V23.3257H135.093V32.5443Z" fill="white"/>
<path fill-rule="evenodd" clip-rule="evenodd" d="M143.258 32.5453H144.608V22.0352H143.258V32.5453Z" fill="white"/>
<path fill-rule="evenodd" clip-rule="evenodd" d="M150.6 32.5443H149.248V23.3257H146.312V22.0342H153.536V23.3257H150.6V32.5443Z" fill="white"/>
<path fill-rule="evenodd" clip-rule="evenodd" d="M160.499 30.306C161.278 31.0941 162.229 31.4872 163.355 31.4872C164.481 31.4872 165.434 31.0941 166.211 30.306C166.989 29.5185 167.379 28.5124 167.379 27.2894C167.379 26.0664 166.989 25.0603 166.211 24.2722C165.434 23.4847 164.481 23.0916 163.355 23.0916C162.229 23.0916 161.278 23.4847 160.499 24.2722C159.722 25.0603 159.332 26.0664 159.332 27.2894C159.332 28.5124 159.722 29.5185 160.499 30.306ZM167.21 31.1863C166.176 32.2486 164.891 32.7787 163.355 32.7787C161.818 32.7787 160.534 32.2486 159.501 31.1863C158.468 30.1247 157.953 28.8257 157.953 27.2894C157.953 25.7531 158.468 24.4535 159.501 23.3925C160.534 22.3303 161.818 21.7988 163.355 21.7988C164.883 21.7988 166.164 22.3327 167.203 23.3993C168.24 24.4659 168.758 25.7624 168.758 27.2894C168.758 28.8257 168.241 30.1247 167.21 31.1863Z" fill="white"/>
<path fill-rule="evenodd" clip-rule="evenodd" d="M170.656 32.5443V22.0342H172.301L177.409 30.2099H177.468L177.409 28.1845V22.0342H178.761V32.5443H177.351L172.006 23.9724H171.947L172.006 25.9978V32.5443H170.656Z" fill="white"/>
<path fill-rule="evenodd" clip-rule="evenodd" d="M225.603 62.3231H228.871V40.4244H225.603V62.3231ZM255.05 48.3129L251.302 57.807H251.19L247.301 48.3129H243.778L249.611 61.5824L246.287 68.9638H249.696L258.686 48.3129H255.05ZM236.508 59.8355C235.437 59.8355 233.944 59.3003 233.944 57.9764C233.944 56.2862 235.803 55.6376 237.41 55.6376C238.847 55.6376 239.523 55.9479 240.397 56.3703C240.143 58.3988 238.396 59.8355 236.508 59.8355ZM236.902 47.8345C234.536 47.8345 232.084 48.8761 231.07 51.1862L233.972 52.398C234.592 51.1862 235.747 50.7925 236.959 50.7925C238.65 50.7925 240.368 51.8068 240.397 53.6091V53.8347C239.805 53.4964 238.537 52.9899 236.987 52.9899C233.859 52.9899 230.675 54.7081 230.675 57.9197C230.675 60.8497 233.239 62.7374 236.114 62.7374C238.311 62.7374 239.523 61.7512 240.284 60.5962H240.397V62.287H243.553V53.8913C243.553 50.0031 240.651 47.8345 236.902 47.8345ZM216.698 50.9788H212.048V43.4728H216.698C219.142 43.4728 220.53 45.4963 220.53 47.2258C220.53 48.9229 219.142 50.9788 216.698 50.9788ZM216.613 40.425H208.779V62.3231H212.048V54.0265H216.613C220.237 54.0265 223.799 51.4037 223.799 47.2258C223.799 43.0473 220.237 40.425 216.613 40.425ZM173.896 59.8398C171.637 59.8398 169.745 57.949 169.745 55.3529C169.745 52.7282 171.637 50.8093 173.896 50.8093C176.125 50.8093 177.875 52.7282 177.875 55.3529C177.875 57.949 176.125 59.8398 173.896 59.8398ZM177.65 49.5396H177.537C176.803 48.6649 175.391 47.8743 173.613 47.8743C169.887 47.8743 166.471 51.1482 166.471 55.3529C166.471 59.5296 169.887 62.7748 173.613 62.7748C175.391 62.7748 176.803 61.9842 177.537 61.0815H177.65V62.1537C177.65 65.004 176.125 66.5278 173.669 66.5278C171.665 66.5278 170.423 65.0887 169.916 63.8757L167.065 65.0606C167.883 67.0362 170.056 69.4628 173.669 69.4628C177.508 69.4628 180.754 67.205 180.754 61.702V48.326H177.65V49.5396ZM183.012 62.3231H186.286V40.4244H183.012V62.3231ZM191.113 55.0987C191.029 52.2204 193.344 50.7526 195.009 50.7526C196.307 50.7526 197.409 51.4018 197.776 52.3332L191.113 55.0987ZM201.276 52.6148C200.655 50.9507 198.763 47.8743 194.897 47.8743C191.057 47.8743 187.867 50.8941 187.867 55.3243C187.867 59.5009 191.029 62.7748 195.264 62.7748C198.679 62.7748 200.655 60.6859 201.473 59.4729L198.933 57.7795C198.086 59.0218 196.928 59.8398 195.264 59.8398C193.598 59.8398 192.412 59.0773 191.651 57.5821L201.614 53.4621L201.276 52.6148ZM121.891 50.1601V53.3207H129.456C129.23 55.0987 128.638 56.3971 127.734 57.2998C126.633 58.4007 124.911 59.6143 121.891 59.6143C117.233 59.6143 113.593 55.8607 113.593 51.2043C113.593 46.5479 117.233 42.7949 121.891 42.7949C124.403 42.7949 126.238 43.7824 127.593 45.0521L129.823 42.823C127.931 41.0169 125.42 39.6338 121.891 39.6338C115.511 39.6338 110.148 44.8266 110.148 51.2043C110.148 57.5821 115.511 62.7748 121.891 62.7748C125.335 62.7748 127.931 61.6466 129.964 59.5296C132.053 57.4413 132.702 54.5063 132.702 52.1357C132.702 51.4018 132.646 50.7246 132.532 50.1601H121.891ZM141.302 59.8398C139.044 59.8398 137.096 57.977 137.096 55.3243C137.096 52.6435 139.044 50.8093 141.302 50.8093C143.56 50.8093 145.508 52.6435 145.508 55.3243C145.508 57.977 143.56 59.8398 141.302 59.8398ZM141.302 47.8743C137.181 47.8743 133.822 51.0068 133.822 55.3243C133.822 59.6143 137.181 62.7748 141.302 62.7748C145.424 62.7748 148.782 59.6143 148.782 55.3243C148.782 51.0068 145.424 47.8743 141.302 47.8743ZM157.62 59.8398C155.362 59.8398 153.414 57.977 153.414 55.3243C153.414 52.6435 155.362 50.8093 157.62 50.8093C159.878 50.8093 161.826 52.6435 161.826 55.3243C161.826 57.977 159.878 59.8398 157.62 59.8398ZM157.62 47.8743C153.499 47.8743 150.14 51.0068 150.14 55.3243C150.14 59.6143 153.499 62.7748 157.62 62.7748C161.742 62.7748 165.1 59.6143 165.1 55.3243C165.1 51.0068 161.742 47.8743 157.62 47.8743Z" fill="white"/>
<path fill-rule="evenodd" clip-rule="evenodd" d="M60.802 21.0835C60.2978 21.6106 60 22.4284 60 23.4894V61.354C60 62.4146 60.2978 63.2324 60.802 63.7599L60.9301 63.8835L82.3949 42.6718V42.1711L60.9301 20.96L60.802 21.0835Z" fill="#60C2E3"/>
<mask id="mask0_607_26556" style="mask-type:alpha" maskUnits="userSpaceOnUse" x="81" y="35" width="19" height="15">
<path d="M88.7664 49.4789L81.75 42.6145V42.1286L88.7683 35.2656L88.9269 35.3533L97.24 39.9729C99.6142 41.292 99.6142 43.4511 97.24 44.7707L88.9264 49.3898L88.7664 49.4789Z" fill="white"/>
</mask>
<g mask="url(#mask0_607_26556)">
<path fill-rule="evenodd" clip-rule="evenodd" d="M88.7664 49.4789L81.75 42.6145V42.1286L88.7683 35.2656L88.9269 35.3533L97.24 39.9729C99.6142 41.292 99.6142 43.4511 97.24 44.7707L88.9264 49.3898L88.7664 49.4789Z" fill="url(#paint0_linear_607_26556)"/>
</g>
<mask id="mask1_607_26556" style="mask-type:alpha" maskUnits="userSpaceOnUse" x="61" y="42" width="29" height="23">
<path d="M89.4512 49.8711L82.3068 42.6191L61.2266 64.0177C62.0061 64.8548 63.2926 64.9583 64.7414 64.1227L89.4512 49.8711Z" fill="white"/>
</mask>
<g mask="url(#mask1_607_26556)">
<path fill-rule="evenodd" clip-rule="evenodd" d="M89.4512 49.8711L82.3068 42.6191L61.2266 64.0177C62.0061 64.8548 63.2926 64.9583 64.7414 64.1227L89.4512 49.8711Z" fill="url(#paint1_linear_607_26556)"/>
</g>
<mask id="mask2_607_26556" style="mask-type:alpha" maskUnits="userSpaceOnUse" x="61" y="20" width="29" height="24">
<path d="M61.2266 21.6568C62.0061 20.8197 63.2926 20.7162 64.7414 21.5518L89.4517 35.8029L82.3068 43.0553L61.2266 21.6568Z" fill="white"/>
</mask>
<g mask="url(#mask2_607_26556)">
<path fill-rule="evenodd" clip-rule="evenodd" d="M60.4453 67.2434H256.559V20.9746H60.4453V67.2434Z" fill="url(#paint2_linear_607_26556)"/>
</g>
<defs>
<linearGradient id="paint0_linear_607_26556" x1="95.6963" y1="42.3723" x2="54.5843" y2="42.3723" gradientUnits="userSpaceOnUse">
<stop stop-color="#EC942D"/>
<stop offset="1" stop-color="#FBDE1E"/>
</linearGradient>
<linearGradient id="paint1_linear_607_26556" x1="85.5694" y1="49.3141" x2="54.6532" y2="80.6958" gradientUnits="userSpaceOnUse">
<stop stop-color="#DD4245"/>
<stop offset="1" stop-color="#B72162"/>
</linearGradient>
<linearGradient id="paint2_linear_607_26556" x1="46.9042" y1="41.6463" x2="63.2725" y2="58.261" gradientUnits="userSpaceOnUse">
<stop stop-color="#6CB966"/>
<stop offset="1" stop-color="#299567"/>
</linearGradient>
</defs>
</svg>
